#!OML:ASF F:\VICON\USERDATA\INSTALL\rory3\rory3.ASF
:FULLY-SPECIFIED
:DEGREES
104
root -6.53632 18.0188 -4.27527 1.73293 36.6261 4.64956
lowerback 12.3227 1.34054 -5.72355
upperback 2.58304 1.04062 -0.909102
thorax -4.27465 0.59363 2.10823
lowerneck -15.2369 -5.37487 -13.296
upperneck 36.0568 -6.00692 7.33441
head 16.1012 -3.20009 4.48766
rclavicle -2.7718e-014 9.44227e-015
rhumerus -27.9405 -9.68984 -84.3652
rradius 31.6576
rwrist 8.84197
rhand -16.1775 8.26849
rfingers 7.12502
rthumb 10.0289 -21.4726
lclavicle -2.7718e-014 9.44227e-015
lhumerus -27.9507 8.88516 80.5194
lradius 34.6532
lwrist -1.44848
lhand -20.2548 22.3221
lfingers 7.12502
lthumb 6.0938 52.2144
rfemur -19.5235 -9.9205 15.2331
rtibia 63.8582
rfoot -1.80773 -6.13809
rtoes 10.0971
lfemur -0.106075 3.92833 -27.4388
ltibia 9.17647
lfoot -4.53946 -3.34801
ltoes 3.26944
105
root -6.47845 17.9956 -4.20498 1.71753 36.7078 4.65419
lowerback 12.3465 1.30762 -5.7493
upperback 2.54015 0.99064 -0.892395
thorax -4.32961 0.571258 2.14751
lowerneck -15.3444 -5.35563 -13.2694
upperneck 36.1206 -5.95392 7.2826
head 16.1485 -3.18091 4.47196
rclavicle -5.61691e-014 -1.78906e-015
rhumerus -27.9831 -9.40939 -84.4037
rradius 31.8897
rwrist 8.57413
rhand -16.0447 8.04497
rfingers 7.12502
rthumb 10.157 -21.6899
lclavicle -5.61691e-014 -1.78906e-015
lhumerus -27.8871 8.32771 80.712
lradius 35.2969
lwrist -0.421327
lhand -22.2229 25.6696
lfingers 7.12502
lthumb 4.19353 55.6081
rfemur -20.2342 -9.81692 15.293
rtibia 63.1988
rfoot -2.91101 -5.86146
rtoes 9.54419
lfemur -0.341494 3.88647 -27.4254
ltibia 10.3392
lfoot -5.38257 -3.21258
ltoes 2.33263
106
root -6.42133 17.9738 -4.13316 1.77003 36.8375 4.77651
lowerback 12.4259 1.27727 -5.8359
upperback 2.47916 0.930099 -0.905125
thorax -4.43375 0.545971 2.19091
lowerneck -15.4445 -5.35897 -13.3369
upperneck 36.1975 -5.9518 7.35347
head 16.2185 -3.18012 4.51973
rclavicle 6.09772e-014 -1.65985e-014
rhumerus -27.9826 -9.12218 -84.444
rradius 32.0381
rwrist 8.25116
rhand -15.897 7.9526
rfingers 7.12502
rthumb 10.2996 -21.7752
lclavicle 6.09772e-014 -1.65985e-014
lhumerus -27.8113 7.86613 80.8278
lradius 35.7759
lwrist 0.182669
lhand -22.9894 27.3849
lfingers 7.12502
lthumb 3.4533 57.3367
rfemur -20.89 -9.75044 15.2655
rtibia 62.422
rfoot -3.84885 -5.58055
rtoes 9.33369
lfemur -0.529939 3.64812 -27.5456
ltibia 11.4371
lfoot -6.15165 -2.94565
ltoes 1.16408
107
root -6.36554 17.95 -4.06189 1.85301 37.0081 4.99569
lowerback 12.4375 1.23102 -6.04052
upperback 2.51242 0.84418 -0.896789
thorax -4.40051 0.505095 2.32889
lowerneck -15.584 -5.35836 -13.3848
upperneck 36.1907 -5.91095 7.33786
head 16.245 -3.17007 4.52743
rclavicle 1.21383e-014 2.16675e-014
rhumerus -27.8077 -8.77327 -84.4623
rradius 32.2516
rwrist 7.5985
rhand -15.516 7.54876
rfingers 7.12502
rthumb 10.6671 -22.1605
lclavicle 1.21383e-014 2.16675e-014
lhumerus -27.5438 7.77352 80.8672
lradius 36.0008
lwrist 0.207231
lhand -22.6091 26.0952
lfingers 7.12502
lthumb 3.82055 56.0407
rfemur -21.49 -9.75947 15.1385
rtibia 61.5553
rfoot -4.88154 -5.31736
rtoes 9.94189
lfemur -0.61145 3.67263 -27.7115
ltibia 12.3862
lfoot -6.94212 -2.99607
ltoes 1.20751
108
root -6.30739 17.926 -3.98966 1.96063 37.0615 5.22782
lowerback 12.4746 1.22853 -6.19956
upperback 2.47947 0.814082 -0.936614
thorax -4.45442 0.494196 2.38057
lowerneck -15.5459 -5.33575 -13.1764
upperneck 36.1259 -5.86109 7.10244
head 16.1745 -3.15069 4.39025
rclavicle -2.48481e-015 -1.10325e-014
rhumerus -27.8142 -8.62149 -84.4566
rradius 32.5896
rwrist 6.83251
rhand -14.9375 7.0625
rfingers 7.12502
rthumb 11.225 -22.6172
lclavicle -2.48481e-015 -1.10325e-014
lhumerus -27.425 7.50613 80.9244
lradius 36.3712
lwrist 0.522617
lhand -22.7558 25.3184
lfingers 7.12502
lthumb 3.67894 55.2664
rfemur -22.0979 -9.74107 14.9782
rtibia 60.5734
rfoot -5.95134 -5.11889
rtoes 10.3136
lfemur -0.577921 3.79669 -27.8915
ltibia 13.1008
lfoot -7.62115 -3.04715
ltoes 2.41796
109
root -6.25106 17.9077 -3.91498 2.06022 37.1232 5.36753
lowerback 12.5166 1.21263 -6.27971
upperback 2.38377 0.772047 -0.981583
thorax -4.57529 0.479183 2.38387
lowerneck -15.2424 -5.27767 -12.5339
upperneck 35.8684 -5.80829 6.53481
head 15.9063 -3.11471 4.02274
rclavicle 7.44573e-014 -4.45775e-014
rhumerus -27.9605 -8.51263 -84.4898
rradius 32.8509
rwrist 6.46631
rhand -14.824 6.99481
rfingers 7.12502
rthumb 11.3345 -22.6789
lclavicle 7.44573e-014 -4.45775e-014
lhumerus -27.381 7.18906 80.9605
lradius 36.7345
lwrist 0.825482
lhand -23.0678 24.6686
lfingers 7.12502
lthumb 3.37764 54.6216
rfemur -22.7193 -9.63115 14.9257
rtibia 59.4415
rfoot -6.57674 -5.0701
rtoes 11.1448
lfemur -0.533074 3.57105 -28.0182
ltibia 13.7324
lfoot -8.16135 -2.77022
ltoes 2.58503
110
root -6.19634 17.8924 -3.83988 2.15173 37.2807 5.4965
lowerback 12.4794 1.14798 -6.38681
upperback 2.39782 0.67567 -1.00051
thorax -4.53217 0.431831 2.44056
lowerneck -15.555 -5.3416 -13.2014
upperneck 36.1181 -5.90487 7.21191
head 16.1844 -3.15813 4.4354
rclavicle -2.07109e-014 1.65985e-014
rhumerus -27.8837 -8.32357 -84.5576
rradius 32.9462
rwrist 6.38455
rhand -14.9824 6.87817
rfingers 7.12502
rthumb 11.1817 -22.8039
lclavicle -2.07109e-014 1.65985e-014
lhumerus -27.2498 6.91376 80.931
lradius 37.0621
lwrist 0.78615
lhand -22.6624 24.2941
lfingers 7.12502
lthumb 3.76908 54.2405
rfemur -23.2485 -9.56263 14.9072
rtibia 58.1579
rfoot -6.72882 -5.12427
rtoes 12.88
lfemur -0.447578 3.26163 -28.1408
ltibia 14.2319
lfoot -8.59078 -2.47403
ltoes 2.01551
111
root -6.14317 17.8742 -3.76563 2.24388 37.4579 5.5997
lowerback 12.5149 1.07724 -6.44431
upperback 2.36777 0.569453 -1.01988
thorax -4.57416 0.382039 2.46941
lowerneck -15.6903 -5.33545 -13.2881
upperneck 36.1392 -5.87985 7.29041
head 16.2322 -3.14839 4.49112
rclavicle -2.10588e-014 -2.5345e-015
rhumerus -27.8211 -8.27537 -84.5845
rradius 32.9491
rwrist 6.4353
rhand -15.0043 6.8601
rfingers 7.12502
rthumb 11.1606 -22.8231
lclavicle -2.10588e-014 -2.5345e-015
lhumerus -27.2744 6.45597 80.9001
lradius 37.533
lwrist 0.826875
lhand -22.3992 24.3205
lfingers 7.12502
lthumb 4.02326 54.2623
rfemur -23.6883 -9.5895 14.9578
rtibia 56.7167
rfoot -7.87083 -5.80667
rtoes 8.95973
lfemur -0.340086 3.33676 -28.2075
ltibia 14.5488
lfoot -9.01976 -2.53234
ltoes 1.43903
112
root -6.09218 17.864 -3.69309 2.34954 37.6517 5.73385
lowerback 12.7327 1.00712 -6.47204
upperback 2.20694 0.443966 -1.0761
thorax -4.85296 0.331183 2.44389
lowerneck -15.5211 -5.29776 -13.1835
upperneck 36.1125 -5.84317 7.19378
head 16.162 -3.13303 4.43564
rclavicle 1.45473e-013 -4.76089e-014
rhumerus -27.9845 -8.30706 -84.5776
rradius 32.9024
rwrist 6.52309
rhand -14.9628 7.216
rfingers 7.12502
rthumb 11.2007 -22.465
lclavicle 1.45473e-013 -4.76089e-014
lhumerus -27.3416 6.14758 80.8356
lradius 37.7721
lwrist 0.817057
lhand -22.3052 24.204
lfingers 7.12502
lthumb 4.11401 54.1441
rfemur -24.0897 -9.61636 14.9895
rtibia 55.1279
rfoot -8.25195 -6.34216
rtoes 8.58749
lfemur -0.157905 3.42872 -28.287
ltibia 14.7283
lfoot -9.42408 -2.64569
ltoes 0.854765
113
root -6.03827 17.8598 -3.61591 2.35155 37.7745 5.79874
lowerback 12.8925 0.969372 -6.49013
upperback 2.13012 0.373967 -1.08676
thorax -5.01633 0.303088 2.45319
lowerneck -15.4869 -5.26547 -13.2597
upperneck 36.15 -5.80154 7.26789
head 16.1733 -3.11736 4.49281
rclavicle -3.72473e-014 6.75868e-015
rhumerus -28.0686 -8.15442 -84.6121
rradius 32.953
rwrist 6.24195
rhand -14.9969 7.30476
rfingers 7.12502
rthumb 11.1678 -22.378
lclavicle -3.72473e-014 6.75868e-015
lhumerus -27.2614 6.05079 80.8112
lradius 37.8728
lwrist 0.738403
lhand -22.0154 24.1002
lfingers 7.12502
lthumb 4.39392 54.0346
rfemur -24.3806 -9.49299 15.0458
rtibia 53.4102
rfoot -8.44141 -6.76637
rtoes 11.1688
lfemur 0.187126 3.17645 -28.3326
ltibia 14.8653
lfoot -9.77172 -2.38007
ltoes 0.83769
114
root -5.98107 17.8534 -3.53363 2.36285 37.8178 5.8012
lowerback 12.8338 0.953164 -6.56574
upperback 2.12532 0.349693 -1.02455
thorax -4.98747 0.291928 2.56582
lowerneck -15.5375 -5.23073 -13.3043
upperneck 36.1439 -5.71736 7.24315
head 16.1712 -3.09086 4.50476
rclavicle -6.15114e-014 1.28216e-014
rhumerus -28.0376 -7.88384 -84.6049
rradius 33.0332
rwrist 5.9441
rhand -15.0572 7.16071
rfingers 7.12502
rthumb 11.1096 -22.5252
lclavicle -6.15114e-014 1.28216e-014
lhumerus -27.2281 5.7936 80.8734
lradius 38.1643
lwrist 0.887523
lhand -22.0303 24.404
lfingers 7.12502
lthumb 4.37954 54.3387
rfemur -24.6506 -9.40614 15.1802
rtibia 51.6025
rfoot -8.97702 -7.42938
rtoes 12.6327
lfemur 0.550227 3.09708 -28.3189
ltibia 14.8687
lfoot -10.0286 -2.22401
ltoes 0.480501
115
root -5.92539 17.8429 -3.44886 2.38257 37.8746 5.74974
lowerback 12.6447 0.92532 -6.63072
upperback 2.17617 0.326358 -0.940657
thorax -4.82758 0.276175 2.69606
lowerneck -15.5876 -5.22373 -13.3478
upperneck 36.0764 -5.67688 7.22102
head 16.1443 -3.0812 4.50616
rclavicle -6.3462e-014 2.39039e-014
rhumerus -28.0179 -7.70606 -84.5452
rradius 33.2447
rwrist 5.78508
rhand -15.0756 7.12813
rfingers 7.12502
rthumb 11.0918 -22.5588
lclavicle -6.3462e-014 2.39039e-014
lhumerus -27.0405 5.61031 80.977
lradius 38.3416
lwrist 0.953175
lhand -22.1615 25.1529
lfingers 7.12502
lthumb 4.25286 55.0902
rfemur -24.9068 -9.49397 15.4192
rtibia 49.7275
rfoot -9.46773 -8.25948
rtoes 11.4627
lfemur 0.934833 3.20009 -28.2264
ltibia 14.7179
lfoot -10.2279 -2.32079
ltoes -0.0176905
116
root -5.87108 17.8337 -3.3661 2.45795 37.9661 5.83926
lowerback 12.5983 0.932498 -6.66918
upperback 2.17905 0.333704 -0.963287
thorax -4.79962 0.279443 2.69282
lowerneck -15.6472 -5.25908 -13.3858
upperneck 36.093 -5.7235 7.25828
head 16.1781 -3.1003 4.52148
rclavicle -3.51725e-014 1.97791e-014
rhumerus -28.2137 -8.12293 -84.4327
rradius 33.6202
rwrist 6.05613
rhand -15.0859 7.10041
rfingers 7.12502
rthumb 11.0819 -22.587
lclavicle -3.51725e-014 1.97791e-014
lhumerus -26.853 5.25808 81.0687
lradius 38.4572
lwrist 1.06583
lhand -22.3482 25.6326
lfingers 7.12502
lthumb 4.07251 55.5734
rfemur -25.1299 -9.56241 15.51
rtibia 47.8199
rfoot -9.59249 -8.99095
rtoes 10.1824
lfemur 1.42754 3.09961 -28.2716
ltibia 14.4321
lfoot -10.3028 -2.25878
ltoes 0.286509
117
root -5.81468 17.8296 -3.28844 2.61284 38.0564 6.03796
lowerback 12.618 0.914124 -6.73897
upperback 2.13807 0.293558 -1.01948
thorax -4.85006 0.262885 2.67919
lowerneck -15.6373 -5.25921 -13.17
upperneck 36.0983 -5.70848 7.02579
head 16.1564 -3.09492 4.3813
rclavicle 1.50331e-014 1.13804e-014
rhumerus -28.3251 -8.57246 -84.3286
rradius 33.7173
rwrist 6.4279
rhand -14.8885 7.02402
rfingers 7.12502
rthumb 11.2723 -22.6531
lclavicle 1.50331e-014 1.13804e-014
lhumerus -26.8161 4.87505 81.1231
lradius 38.6461
lwrist 1.15753
lhand -22.5047 25.7956
lfingers 7.12502
lthumb 3.92143 55.7393
rfemur -25.402 -9.67084 15.453
rtibia 45.8839
rfoot -9.4849 -9.48971
rtoes 9.54525
lfemur 1.97301 2.87797 -28.4488
ltibia 14.039
lfoot -10.3553 -2.10192
ltoes 0.490367
118
root -5.75615 17.825 -3.21235 2.87923 38.173 6.34197
lowerback 12.5762 0.855828 -6.89626
upperback 2.11342 0.195376 -1.06941
thorax -4.84367 0.217263 2.73134
lowerneck -15.5404 -5.22993 -12.7956
upperneck 35.9703 -5.65978 6.65218
head 16.0271 -3.07151 4.15088
rclavicle -9.10744e-014 1.26228e-014
rhumerus -28.2363 -8.39518 -84.3425
rradius 33.6021
rwrist 6.30693
rhand -14.5411 6.89744
rfingers 7.12502
rthumb 11.6074 -22.7611
lclavicle -9.10744e-014 1.26228e-014
lhumerus -26.7666 4.71728 81.1436
lradius 38.7731
lwrist 1.15032
lhand -22.3997 25.2572
lfingers 7.12502
lthumb 4.02283 55.199
rfemur -25.7018 -9.84476 15.2834
rtibia 43.9146
rfoot -9.31668 -9.84305
rtoes 9.59777
lfemur 2.52314 2.68288 -28.7286
ltibia 13.5033
lfoot -10.3355 -1.97295
ltoes 0.25678
